<?xml version="1.0" encoding="UTF-8" standalone="no"?>
<!-- Created with Inkscape (http://www.inkscape.org/) -->

<svg
   xmlns:dc="http://purl.org/dc/elements/1.1/"
   xmlns:cc="http://creativecommons.org/ns#"
   xmlns:rdf="http://www.w3.org/1999/02/22-rdf-syntax-ns#"
   xmlns:svg="http://www.w3.org/2000/svg"
   xmlns="http://www.w3.org/2000/svg"
   xmlns:sodipodi="http://sodipodi.sourceforge.net/DTD/sodipodi-0.dtd"
   xmlns:inkscape="http://www.inkscape.org/namespaces/inkscape"
   width="420"
   height="500"
   viewBox="0 0 111.125 132.29167"
   version="1.1"
   id="svg8"
   inkscape:version="0.92.2 (5c3e80d, 2017-08-06)"
   sodipodi:docname="hushed-site-projects.svg">
  <defs
     id="defs2" />
  <sodipodi:namedview
     id="base"
     pagecolor="#ffffff"
     bordercolor="#666666"
     borderopacity="1.0"
     inkscape:pageopacity="1"
     inkscape:pageshadow="2"
     inkscape:zoom="1.4058404"
     inkscape:cx="47.144649"
     inkscape:cy="174.66656"
     inkscape:document-units="px"
     inkscape:current-layer="layer1"
     showgrid="true"
     units="px"
     inkscape:snap-global="true"
     inkscape:window-width="1920"
     inkscape:window-height="1051"
     inkscape:window-x="-9"
     inkscape:window-y="-9"
     inkscape:window-maximized="1"
     inkscape:snap-bbox="true">
    <inkscape:grid
       type="xygrid"
       id="grid5243" />
  </sodipodi:namedview>
  <metadata
     id="metadata5">
    <rdf:RDF>
      <cc:Work
         rdf:about="">
        <dc:format>image/svg+xml</dc:format>
        <dc:type
           rdf:resource="http://purl.org/dc/dcmitype/StillImage" />
        <dc:title></dc:title>
      </cc:Work>
    </rdf:RDF>
  </metadata>
  <g
     inkscape:label="Layer 1"
     inkscape:groupmode="layer"
     id="layer1"
     transform="translate(0,-164.70832)">
    <path
       style="fill:#ff2a2a;fill-opacity:1;stroke:#ff2a2a;stroke-width:0.27311829px;stroke-linecap:butt;stroke-linejoin:miter;stroke-opacity:1"
       d="M 26.458334,299.5178 111.125,218.9479 v 80.5699 z"
       id="path5245"
       inkscape:connector-curvature="0"
       sodipodi:nodetypes="cccc" />
    <text
       xml:space="preserve"
       style="font-style:normal;font-variant:normal;font-weight:normal;font-stretch:normal;font-size:12.28517437px;line-height:1.25;font-family:Verdana;-inkscape-font-specification:Verdana;letter-spacing:0px;word-spacing:0px;fill:#f68b1f;fill-opacity:1;stroke:none;stroke-width:0.65813434"
       x="-164.86093"
       y="231.0219"
       id="text5887"
       transform="rotate(-43.814885)"><tspan
         sodipodi:role="line"
         id="tspan5885"
         x="-164.86093"
         y="231.0219"
         style="fill:#f68b1f;stroke-width:0.65813434">Responsive</tspan></text>
    <text
       xml:space="preserve"
       style="font-style:normal;font-variant:normal;font-weight:normal;font-stretch:normal;font-size:12.28517437px;line-height:1.25;font-family:Verdana;-inkscape-font-specification:Verdana;letter-spacing:0px;word-spacing:0px;fill:#ffffff;fill-opacity:1;stroke:none;stroke-width:0.65813434"
       x="-159.54903"
       y="242.41513"
       id="text5891"
       transform="rotate(-45.004399)"><tspan
         sodipodi:role="line"
         id="tspan5889"
         x="-159.54903"
         y="242.41513"
         style="fill:#ffffff;fill-opacity:1;stroke-width:0.65813434">Website</tspan></text>
    <path
       style="fill:#62c2cc;fill-opacity:1;stroke:none;stroke-width:0.4359028"
       d="m 4.4579823,191.11121 c -1.1557927,2.15362 -1.0929748,4.09268 0,6.54704 l 6.5471107,0.40909 12.431041,-11.30496 c 6.54e-4,-0.01 0.06437,-9.41579 0.07221,-10.94392 0.0079,-1.52814 -3.500988,3.01678 -3.500988,3.01678 l -9.002271,11.04828 z"
       id="path2985"
       inkscape:connector-curvature="0"
       sodipodi:nodetypes="cccczccc" />
    <path
       style="fill:#ff2a2a;fill-opacity:1;stroke:none;stroke-width:0.4359028"
       d="M 6.3261916,203.10773 37.041667,175.29165 c 0.825188,-0.59883 1.441507,0.16591 0.510224,0.9948 L 6.8364219,204.10259 c -0.4948319,0.50504 -1.5008942,-0.0817 -0.5102303,-0.99486 z"
       id="rect2991"
       inkscape:connector-curvature="0"
       sodipodi:nodetypes="ccccc" />
    <path
       style="fill:#62c2cc;fill-opacity:1;stroke:none;stroke-width:0.4359028"
       d="m 23.452525,189.93227 c 0,0 0.107483,17.97 0.02137,18.30551 -0.372376,1.45017 -5.647543,-3.9053 -5.647543,-3.9053 l -5.18021,-4.55413 z"
       id="path3762"
       inkscape:connector-curvature="0"
       sodipodi:nodetypes="csccc" />
    <path
       style="fill:#62c2cc;stroke:none;stroke-width:0.4359028"
       d="m 28.846602,181.89145 c 0,0 -1.882932,-1.82852 -3.110513,-3.05621 -1.227583,-1.22754 -0.467819,-1.83422 0.818389,-0.81836 1.286205,1.016 2.070199,1.4627 3.531169,2.814 z"
       id="path3764"
       inkscape:connector-curvature="0"
       sodipodi:nodetypes="czzcc" />
    <path
       style="fill:#62c2cc;stroke:none;stroke-width:0.4359028"
       d="m 30.175643,183.6715 1.212598,-1.15993 c 0.572283,0.85838 3.614666,3.16853 3.654666,10.28047 0.04002,7.11185 -7.384565,13.29588 -7.713339,13.52455 -0.328778,0.22859 -1.5088,1.17218 -1.910195,0.78301 -0.458562,-0.44463 1.116573,-1.85237 1.960157,-2.87417 2.649601,-3.44907 5.152447,-5.84331 5.125393,-11.41851 -0.01285,-2.64761 0.150516,-4.93629 -2.32928,-9.13542 z"
       id="path3768"
       inkscape:connector-curvature="0"
       sodipodi:nodetypes="cczzscsc" />
    <path
       style="fill:#62c2cc;stroke:none;stroke-width:0.4359028"
       d="m 25.326895,188.24224 v 10.22985 c 0,0 4.027256,-1.03497 4.027256,-5.12683 0,-4.09204 -4.027256,-5.10302 -4.027256,-5.10302 z"
       id="path2996"
       inkscape:connector-curvature="0"
       sodipodi:nodetypes="cczc" />
    <text
       xml:space="preserve"
       style="font-style:oblique;font-variant:normal;font-weight:normal;font-stretch:normal;font-size:5.23083305px;line-height:0%;font-family:Vani;-inkscape-font-specification:'Vani Oblique';letter-spacing:0px;word-spacing:0px;fill:#62c2cc;fill-opacity:1;stroke:none;stroke-width:0.4359028"
       x="43.704041"
       y="191.83241"
       id="text4393"><tspan
         sodipodi:role="line"
         id="tspan4395"
         x="43.704041"
         y="191.83241"
         style="font-size:12.69955635px;line-height:1.25;stroke-width:0.4359028">HUSHED</tspan></text>
    <text
       xml:space="preserve"
       style="font-style:oblique;font-variant:normal;font-weight:normal;font-stretch:normal;font-size:5.23083305px;line-height:0%;font-family:Vani;-inkscape-font-specification:'Vani Oblique';letter-spacing:0px;word-spacing:0px;fill:#f68b1f;fill-opacity:1;stroke:none;stroke-width:0.4359028"
       x="43.704041"
       y="202.94453"
       id="text4397"><tspan
         sodipodi:role="line"
         id="tspan4399"
         x="43.704041"
         y="202.94453"
         style="font-size:12.69955635px;line-height:1.25;stroke-width:0.4359028">APP</tspan></text>
    <path
       style="fill:#62c2cc;fill-opacity:0.98431373;stroke:none;stroke-width:0.4359028"
       d="m 42.448015,207.6328 c -0.776598,-0.76245 12.218314,-1.07172 12.218314,-1.07172 l 42.79605,-0.30111 0.01582,1.57457 c 0,0 -53.665708,1.13778 -55.030127,-0.20174 z"
       id="path3817"
       inkscape:connector-curvature="0"
       sodipodi:nodetypes="ccccsc" />
    <ellipse
       ry="1.4230384"
       rx="1.0695939"
       cy="163.73325"
       cx="161.65282"
       style="fill:#f68b1f;fill-opacity:0.98431373;stroke:none;stroke-width:0.18617547"
       id="path3819"
       transform="rotate(18.715647)" />
    <path
       style="fill:#62c2cc;fill-opacity:0.98431373;stroke:none;stroke-width:0.4359028"
       d="m 100.79151,203.55039 1.58356,0.27784 c 0,0 6.17137,-21.0393 5.05009,-23.06494 -1.29224,1.49321 -4.23782,13.90223 -6.63365,22.7871 z"
       id="path3821"
       inkscape:connector-curvature="0"
       sodipodi:nodetypes="cccc" />
  </g>
</svg>
